<mxfile host="app.diagrams.net" agent="Mozilla/5.0 (Windows NT 10.0; Win64; x64; rv:131.0) Gecko/20100101 Firefox/131.0" version="24.8.2">
  <diagram name="PÃ¡gina-1" id="lnj_TzZ-rWiNs3jhGXrE">
    <mxGraphModel dx="1665" dy="875" grid="1" gridSize="10" guides="1" tooltips="1" connect="1" arrows="1" fold="1" page="1" pageScale="1" pageWidth="827" pageHeight="1169" math="0" shadow="0">
      <root>
        <mxCell id="0" />
        <mxCell id="1" parent="0" />
        <mxCell id="DDQ0t8_V_KSmzFKOvDdP-6" style="edgeStyle=orthogonalEdgeStyle;rounded=0;orthogonalLoop=1;jettySize=auto;html=1;exitX=1;exitY=0.5;exitDx=0;exitDy=0;entryX=0;entryY=0.5;entryDx=0;entryDy=0;" parent="1" source="DDQ0t8_V_KSmzFKOvDdP-1" target="DDQ0t8_V_KSmzFKOvDdP-3" edge="1">
          <mxGeometry relative="1" as="geometry" />
        </mxCell>
        <mxCell id="DDQ0t8_V_KSmzFKOvDdP-1" value="&lt;div&gt;Medico&lt;/div&gt;" style="rounded=0;whiteSpace=wrap;html=1;" parent="1" vertex="1">
          <mxGeometry x="120" y="120" width="120" height="60" as="geometry" />
        </mxCell>
        <mxCell id="DDQ0t8_V_KSmzFKOvDdP-7" style="edgeStyle=orthogonalEdgeStyle;rounded=0;orthogonalLoop=1;jettySize=auto;html=1;exitX=0;exitY=0.5;exitDx=0;exitDy=0;entryX=1;entryY=0.5;entryDx=0;entryDy=0;" parent="1" source="DDQ0t8_V_KSmzFKOvDdP-2" target="DDQ0t8_V_KSmzFKOvDdP-3" edge="1">
          <mxGeometry relative="1" as="geometry" />
        </mxCell>
        <mxCell id="DDQ0t8_V_KSmzFKOvDdP-2" value="&lt;div&gt;Paciente&lt;/div&gt;" style="rounded=0;whiteSpace=wrap;html=1;" parent="1" vertex="1">
          <mxGeometry x="590" y="120" width="120" height="60" as="geometry" />
        </mxCell>
        <mxCell id="DDQ0t8_V_KSmzFKOvDdP-3" value="&lt;div&gt;Turno&lt;/div&gt;" style="rounded=0;whiteSpace=wrap;html=1;" parent="1" vertex="1">
          <mxGeometry x="354" y="120" width="120" height="60" as="geometry" />
        </mxCell>
        <mxCell id="DDQ0t8_V_KSmzFKOvDdP-15" style="edgeStyle=orthogonalEdgeStyle;rounded=0;orthogonalLoop=1;jettySize=auto;html=1;exitX=1;exitY=0.5;exitDx=0;exitDy=0;entryX=0.5;entryY=1;entryDx=0;entryDy=0;" parent="1" source="DDQ0t8_V_KSmzFKOvDdP-4" target="DDQ0t8_V_KSmzFKOvDdP-3" edge="1">
          <mxGeometry relative="1" as="geometry" />
        </mxCell>
        <mxCell id="DDQ0t8_V_KSmzFKOvDdP-4" value="&lt;div&gt;Informe&lt;/div&gt;" style="rounded=0;whiteSpace=wrap;html=1;" parent="1" vertex="1">
          <mxGeometry x="234" y="280" width="120" height="60" as="geometry" />
        </mxCell>
        <mxCell id="DDQ0t8_V_KSmzFKOvDdP-8" value="&lt;u&gt;PK_Legajo_med&lt;/u&gt;" style="text;html=1;align=center;verticalAlign=middle;resizable=0;points=[];autosize=1;strokeColor=none;fillColor=none;" parent="1" vertex="1">
          <mxGeometry x="114" y="70" width="120" height="30" as="geometry" />
        </mxCell>
        <mxCell id="DDQ0t8_V_KSmzFKOvDdP-9" value="&lt;div&gt;&lt;u&gt;PK_DNI_pac&lt;/u&gt;&lt;/div&gt;" style="text;html=1;align=center;verticalAlign=middle;resizable=0;points=[];autosize=1;strokeColor=none;fillColor=none;" parent="1" vertex="1">
          <mxGeometry x="605" y="70" width="90" height="30" as="geometry" />
        </mxCell>
        <mxCell id="DDQ0t8_V_KSmzFKOvDdP-10" value="&lt;u&gt;PK_ID_tur&lt;/u&gt;" style="text;html=1;align=center;verticalAlign=middle;resizable=0;points=[];autosize=1;strokeColor=none;fillColor=none;" parent="1" vertex="1">
          <mxGeometry x="370" y="30" width="80" height="30" as="geometry" />
        </mxCell>
        <mxCell id="DDQ0t8_V_KSmzFKOvDdP-11" value="FK_Legajo_med_tur" style="text;html=1;align=center;verticalAlign=middle;resizable=0;points=[];autosize=1;strokeColor=none;fillColor=none;" parent="1" vertex="1">
          <mxGeometry x="340" y="50" width="140" height="30" as="geometry" />
        </mxCell>
        <mxCell id="DDQ0t8_V_KSmzFKOvDdP-13" value="FK_DNI_pac_tur" style="text;html=1;align=center;verticalAlign=middle;resizable=0;points=[];autosize=1;strokeColor=none;fillColor=none;" parent="1" vertex="1">
          <mxGeometry x="359" y="70" width="110" height="30" as="geometry" />
        </mxCell>
        <mxCell id="DDQ0t8_V_KSmzFKOvDdP-14" value="&lt;u&gt;PK_ID_inf&lt;/u&gt;" style="text;html=1;align=center;verticalAlign=middle;resizable=0;points=[];autosize=1;strokeColor=none;fillColor=none;" parent="1" vertex="1">
          <mxGeometry x="254" y="250" width="80" height="30" as="geometry" />
        </mxCell>
        <mxCell id="DDQ0t8_V_KSmzFKOvDdP-16" value="FK_ID_inf_tur" style="text;html=1;align=center;verticalAlign=middle;resizable=0;points=[];autosize=1;strokeColor=none;fillColor=none;" parent="1" vertex="1">
          <mxGeometry x="364" y="90" width="100" height="30" as="geometry" />
        </mxCell>
        <mxCell id="JrHySixoj7I35yMvTHDq-5" style="edgeStyle=orthogonalEdgeStyle;rounded=0;orthogonalLoop=1;jettySize=auto;html=1;exitX=1;exitY=0.5;exitDx=0;exitDy=0;entryX=0;entryY=0.5;entryDx=0;entryDy=0;" edge="1" parent="1" source="JrHySixoj7I35yMvTHDq-1" target="DDQ0t8_V_KSmzFKOvDdP-1">
          <mxGeometry relative="1" as="geometry" />
        </mxCell>
        <mxCell id="JrHySixoj7I35yMvTHDq-1" value="&lt;div&gt;Especialidad&lt;/div&gt;" style="rounded=0;whiteSpace=wrap;html=1;" vertex="1" parent="1">
          <mxGeometry x="-120" y="120" width="120" height="60" as="geometry" />
        </mxCell>
        <mxCell id="JrHySixoj7I35yMvTHDq-6" value="&lt;u&gt;PK_Especialidad_esp&lt;/u&gt;" style="text;html=1;align=center;verticalAlign=middle;resizable=0;points=[];autosize=1;strokeColor=none;fillColor=none;" vertex="1" parent="1">
          <mxGeometry x="-140" y="88" width="150" height="30" as="geometry" />
        </mxCell>
        <mxCell id="JrHySixoj7I35yMvTHDq-7" value="FK_Epecialidad_esp_med" style="text;html=1;align=center;verticalAlign=middle;resizable=0;points=[];autosize=1;strokeColor=none;fillColor=none;" vertex="1" parent="1">
          <mxGeometry x="89" y="90" width="170" height="30" as="geometry" />
        </mxCell>
        <mxCell id="JrHySixoj7I35yMvTHDq-9" style="edgeStyle=orthogonalEdgeStyle;rounded=0;orthogonalLoop=1;jettySize=auto;html=1;exitX=1;exitY=0.5;exitDx=0;exitDy=0;entryX=0.5;entryY=1;entryDx=0;entryDy=0;" edge="1" parent="1" source="JrHySixoj7I35yMvTHDq-8" target="DDQ0t8_V_KSmzFKOvDdP-2">
          <mxGeometry relative="1" as="geometry" />
        </mxCell>
        <mxCell id="JrHySixoj7I35yMvTHDq-8" value="&lt;div&gt;Estado&lt;/div&gt;" style="rounded=0;whiteSpace=wrap;html=1;" vertex="1" parent="1">
          <mxGeometry x="470" y="280" width="120" height="60" as="geometry" />
        </mxCell>
        <mxCell id="JrHySixoj7I35yMvTHDq-10" value="FK_Estado_pac" style="text;html=1;align=center;verticalAlign=middle;resizable=0;points=[];autosize=1;strokeColor=none;fillColor=none;" vertex="1" parent="1">
          <mxGeometry x="595" y="88" width="110" height="30" as="geometry" />
        </mxCell>
        <mxCell id="JrHySixoj7I35yMvTHDq-11" value="&lt;u&gt;PK_Estado_pac_est&lt;/u&gt;" style="text;html=1;align=center;verticalAlign=middle;resizable=0;points=[];autosize=1;strokeColor=none;fillColor=none;" vertex="1" parent="1">
          <mxGeometry x="460" y="250" width="140" height="30" as="geometry" />
        </mxCell>
      </root>
    </mxGraphModel>
  </diagram>
</mxfile>
